<?xml version="1.0" encoding="UTF-8" standalone="no"?>
<svg
   width="512"
   height="512"
   viewBox="0 0 135.46666 135.46667"
   version="1.1"
   id="svg8"
   inkscape:version="1.2.2 (732a01da63, 2022-12-09)"
   xml:space="preserve"
   sodipodi:docname="spticon.svg"
   xmlns:inkscape="http://www.inkscape.org/namespaces/inkscape"
   xmlns:sodipodi="http://sodipodi.sourceforge.net/DTD/sodipodi-0.dtd"
   xmlns="http://www.w3.org/2000/svg"
   xmlns:svg="http://www.w3.org/2000/svg"
   xmlns:rdf="http://www.w3.org/1999/02/22-rdf-syntax-ns#"
   xmlns:cc="http://creativecommons.org/ns#"
   xmlns:dc="http://purl.org/dc/elements/1.1/"><defs
     id="defs2" /><sodipodi:namedview
     id="base"
     pagecolor="#ffffff"
     bordercolor="#666666"
     borderopacity="1.0"
     inkscape:pageopacity="0.0"
     inkscape:pageshadow="2"
     inkscape:zoom="0.98994949"
     inkscape:cx="316.17775"
     inkscape:cy="308.09653"
     inkscape:document-units="px"
     inkscape:current-layer="layer1"
     inkscape:document-rotation="0"
     showgrid="true"
     units="px"
     inkscape:showpageshadow="2"
     inkscape:pagecheckerboard="0"
     inkscape:deskcolor="#d1d1d1"
     inkscape:window-width="1920"
     inkscape:window-height="1017"
     inkscape:window-x="-8"
     inkscape:window-y="-8"
     inkscape:window-maximized="1"><inkscape:grid
       empspacing="16"
       id="grid1432"
       type="xygrid" /></sodipodi:namedview><metadata
     id="metadata5"><rdf:RDF><cc:Work
         rdf:about=""><dc:format>image/svg+xml</dc:format><dc:type
           rdf:resource="http://purl.org/dc/dcmitype/StillImage" /></cc:Work></rdf:RDF></metadata><g
     inkscape:label="Layer 1"
     inkscape:groupmode="layer"
     id="layer1"><rect
       x="6.0347977"
       y="94.463242"
       width="33.661427"
       height="32.928272"
       rx="3.8004835"
       fill="#363d52"
       stroke="#212532"
       stroke-width="1.07396"
       id="rect159-1"
       style="fill:#666666" /><rect
       x="36.742664"
       y="56.266922"
       width="44.539677"
       height="43.569592"
       rx="5.0286732"
       fill="#363d52"
       stroke="#212532"
       stroke-width="1.42103"
       id="rect159-1-6"
       style="fill:#666666" /><rect
       x="67.977127"
       y="26.374958"
       width="55.837284"
       height="54.621132"
       rx="6.3042088"
       fill="#363d52"
       stroke="#212532"
       stroke-width="1.78147"
       id="rect159-1-6-9"
       style="fill:#666666" /><g
       id="g485"
       transform="matrix(2.9040443,0,0,2.9040443,-204.55713,-166.30266)"><g
         transform="matrix(0.02672292,0,0,0.02672292,35.704908,45.393427)"
         id="g179"><g
           fill="#ffffff"
           id="g171"
           transform="translate(1335.2015,553.32662)"><path
             d="m 105,673 v 33 q 407,354 814,0 v -33 z"
             id="path161" /><path
             fill="#478cbf"
             d="m 105,673 152,14 q 12,1 15,14 l 4,67 132,10 8,-61 q 2,-11 15,-15 h 162 q 13,4 15,15 l 8,61 132,-10 4,-67 q 3,-13 15,-14 L 919,673 V 427 q 30,-39 56,-81 -35,-59 -83,-108 -43,20 -82,47 -40,-37 -88,-64 7,-51 8,-102 -59,-28 -123,-42 -26,43 -46,89 -49,-7 -98,0 -20,-46 -46,-89 -64,14 -123,42 1,51 8,102 -48,27 -88,64 -39,-27 -82,-47 -48,49 -83,108 26,42 56,81 z m 0,33 v 39 c 0,276 813,276 813,0 v -39 l -134,12 -5,69 q -2,10 -14,13 l -162,11 q -12,0 -16,-11 L 577,735 H 447 l -10,65 q -4,11 -16,11 L 259,800 q -12,-3 -14,-13 l -5,-69 z"
             id="path163" /><path
             d="m 483,600 c 3,34 55,34 58,0 v -86 c -3,-34 -55,-34 -58,0 z"
             id="path165" /><circle
             cx="725"
             cy="526"
             r="90"
             id="circle167" /><circle
             cx="299"
             cy="526"
             r="90"
             id="circle169" /></g><g
           fill="#414042"
           id="g177"
           transform="translate(1335.2015,553.32662)"><circle
             cx="307"
             cy="532"
             r="60"
             id="circle173" /><circle
             cx="717"
             cy="532"
             r="60"
             id="circle175" /></g></g></g></g><inkscape:templateinfo><inkscape:name>Gridded 512 pixel template</inkscape:name><inkscape:date>2021-08-23</inkscape:date></inkscape:templateinfo></svg>
